<svg xmlns:xlink="http://www.w3.org/1999/xlink" class="svg-mobile-rotate" xmlns="http://www.w3.org/2000/svg" width="100" height="100" viewBox="0 0 100 100" fill="none">
  <rect width="100" height="100" rx="50" fill="#FFFFFF"></rect>
  <path fill-rule="evenodd" clip-rule="evenodd" d="M58.587 51.394C60.0033 52.8103 60.0033 55.1066 58.587 56.5228C57.1707 57.9391 54.8745 57.9391 53.4582 56.5228C52.0419 55.1065 52.0419 52.8103 53.4582 51.394C54.8745 49.9777 57.1708 49.9777 58.587 51.394Z" fill="#FE4A23"></path>
  <path d="M58.587 51.394C60.0033 52.8103 60.0033 55.1066 58.587 56.5228C57.1707 57.9391 54.8745 57.9391 53.4582 56.5228C52.0419 55.1065 52.0419 52.8103 53.4582 51.394C54.8745 49.9777 57.1708 49.9777 58.587 51.394" stroke="#FE4A23" stroke-width="1.62px" stroke-linecap="round" stroke-linejoin="round" fill="none"></path>
  <path fill-rule="evenodd" clip-rule="evenodd" d="M69.7841 42.0622C71.2003 43.4785 71.2003 45.7748 69.7841 47.191C68.3678 48.6073 66.0715 48.6073 64.6552 47.191C63.2389 45.7748 63.2389 43.4785 64.6552 42.0622C66.0715 40.6459 68.3678 40.6459 69.7841 42.0622Z" fill="#FE4A23"></path>
  <path d="M69.7841 42.0622C71.2003 43.4785 71.2003 45.7748 69.7841 47.191C68.3678 48.6073 66.0715 48.6073 64.6552 47.191C63.2389 45.7748 63.2389 43.4785 64.6552 42.0622C66.0715 40.6459 68.3678 40.6459 69.7841 42.0622" stroke="#FE4A23" stroke-width="1.62px" stroke-linecap="round" stroke-linejoin="round" fill="none"></path>
  <path fill-rule="evenodd" clip-rule="evenodd" d="M36.191 53.2465C37.6073 54.6628 37.6073 56.9591 36.191 58.3754C34.7748 59.7917 32.4785 59.7917 31.0622 58.3754C29.6459 56.9591 29.6459 54.6628 31.0622 53.2465C32.4785 51.8303 34.7748 51.8303 36.191 53.2465Z" fill="#FE4A23"></path>
  <path d="M36.191 53.2465C37.6073 54.6628 37.6073 56.9591 36.191 58.3754C34.7748 59.7917 32.4785 59.7917 31.0622 58.3754C29.6459 56.9591 29.6459 54.6628 31.0622 53.2465C32.4785 51.8303 34.7748 51.8303 36.191 53.2465" stroke="#FE4A23" stroke-width="1.62px" stroke-linecap="round" stroke-linejoin="round" fill="none"></path>
  <path fill-rule="evenodd" clip-rule="evenodd" d="M47.39 43.9168C48.8063 45.3331 48.8063 47.6294 47.39 49.0457C45.9737 50.4619 43.6775 50.4619 42.2612 49.0457C40.8449 47.6294 40.8449 45.3331 42.2612 43.9168C43.6775 42.5005 45.9737 42.5005 47.39 43.9168Z" fill="#FE4A23"></path>
  <path d="M47.39 43.9168C48.8063 45.3331 48.8063 47.6294 47.39 49.0457C45.9737 50.4619 43.6775 50.4619 42.2612 49.0457C40.8449 47.6294 40.8449 45.3331 42.2612 43.9168C43.6775 42.5005 45.9737 42.5005 47.39 43.9168" stroke="#FE4A23" stroke-width="1.62px" stroke-linecap="round" stroke-linejoin="round" fill="none"></path>
  <path fill-rule="evenodd" clip-rule="evenodd" d="M64.453 46.9414L58.7954 51.6457L64.453 46.9414Z" fill="#FE4A23"></path>
  <path d="M64.453 46.9414L58.7954 51.6457" stroke="#FE4A23" stroke-width="1.62px" stroke-linecap="round" stroke-linejoin="round" fill="none"></path>
  <path fill-rule="evenodd" clip-rule="evenodd" d="M52.9929 51.9566L47.8328 48.4957L52.9929 51.9566Z" fill="#FE4A23"></path>
  <path d="M52.9929 51.9566L47.8328 48.4957" stroke="#FE4A23" stroke-width="1.62px" stroke-linecap="round" stroke-linejoin="round" fill="none"></path>
  <path fill-rule="evenodd" clip-rule="evenodd" d="M36.4138 53.5108L42.0506 48.8065L36.4138 53.5108Z" fill="#FE4A23"></path>
  <path d="M36.4138 53.5108L42.0506 48.8065" stroke="#FE4A23" stroke-width="1.62px" stroke-linecap="round" stroke-linejoin="round" fill="none"></path>
</svg>