<svg xmlns="http://www.w3.org/2000/svg" xmlns:xlink="http://www.w3.org/1999/xlink" viewBox="0 0 689 689" width="689" height="689" preserveAspectRatio="xMidYMid meet" style="width: 100%; height: 100%; transform: translate3d(0px, 0px, 0px); content-visibility: visible;"><defs><clipPath id="__lottie_element_570"><rect width="689" height="689" x="0" y="0"></rect></clipPath></defs><g clip-path="url(#__lottie_element_570)"><g transform="matrix(0.490000456571579,0,0,0.490000456571579,420.4209899902344,395.1600036621094)" opacity="1" style="display: block;"><g opacity="1" transform="matrix(12.307689666748047,0,0,12.307689666748047,0,0)"><path fill="#FFFFFF" fill-opacity="1" d=" M2.825000047683716,2.825000047683716 C4.385000228881836,1.2649999856948853 4.385000228881836,-1.2649999856948853 2.825000047683716,-2.825000047683716 C1.2649999856948853,-4.385000228881836 -1.2649999856948853,-4.385000228881836 -2.825000047683716,-2.825000047683716 C-4.385000228881836,-1.2649999856948853 -4.385000228881836,1.2649999856948853 -2.825000047683716,2.825000047683716 C-1.2649999856948853,4.385000228881836 1.2649999856948853,4.385000228881836 2.825000047683716,2.825000047683716z"></path><path stroke-linecap="round" stroke-linejoin="round" fill-opacity="0" stroke="#FFFFFF" stroke-opacity="1" stroke-width="1.8px" d=" M2.825000047683716,2.825000047683716 C4.385000228881836,1.2649999856948853 4.385000228881836,-1.2649999856948853 2.825000047683716,-2.825000047683716 C1.2649999856948853,-4.385000228881836 -1.2649999856948853,-4.385000228881836 -2.825000047683716,-2.825000047683716 C-4.385000228881836,-1.2649999856948853 -4.385000228881836,1.2649999856948853 -2.825000047683716,2.825000047683716 C-1.2649999856948853,4.385000228881836 1.2649999856948853,4.385000228881836 2.825000047683716,2.825000047683716z"></path></g></g><g transform="matrix(0.999999463558197,0,0,0.999999463558197,572.2440185546875,268.6260070800781)" opacity="1" style="display: block;"><g opacity="1" transform="matrix(12.307689666748047,0,0,12.307689666748047,0,0)"><path fill="#FFFFFF" fill-opacity="1" d=" M2.825000047683716,2.825000047683716 C4.385000228881836,1.2649999856948853 4.385000228881836,-1.2649999856948853 2.825000047683716,-2.825000047683716 C1.2649999856948853,-4.385000228881836 -1.2649999856948853,-4.385000228881836 -2.825000047683716,-2.825000047683716 C-4.385000228881836,-1.2649999856948853 -4.385000228881836,1.2649999856948853 -2.825000047683716,2.825000047683716 C-1.2649999856948853,4.385000228881836 1.2649999856948853,4.385000228881836 2.825000047683716,2.825000047683716z"></path><path stroke-linecap="round" stroke-linejoin="round" fill-opacity="0" stroke="#FFFFFF" stroke-opacity="1" stroke-width="1.8px" d=" M2.825000047683716,2.825000047683716 C4.385000228881836,1.2649999856948853 4.385000228881836,-1.2649999856948853 2.825000047683716,-2.825000047683716 C1.2649999856948853,-4.385000228881836 -1.2649999856948853,-4.385000228881836 -2.825000047683716,-2.825000047683716 C-4.385000228881836,-1.2649999856948853 -4.385000228881836,1.2649999856948853 -2.825000047683716,2.825000047683716 C-1.2649999856948853,4.385000228881836 1.2649999856948853,4.385000228881836 2.825000047683716,2.825000047683716z"></path></g></g><g transform="matrix(0.49000900983810425,0,0,0.49000900983810425,116.74800109863281,420.281005859375)" opacity="1" style="display: block;"><g opacity="1" transform="matrix(12.307689666748047,0,0,12.307689666748047,0,0)"><path fill="#FFFFFF" fill-opacity="1" d=" M2.825000047683716,2.825000047683716 C4.385000228881836,1.2649999856948853 4.385000228881836,-1.2649999856948853 2.825000047683716,-2.825000047683716 C1.2649999856948853,-4.385000228881836 -1.2649999856948853,-4.385000228881836 -2.825000047683716,-2.825000047683716 C-4.385000228881836,-1.2649999856948853 -4.385000228881836,1.2649999856948853 -2.825000047683716,2.825000047683716 C-1.2649999856948853,4.385000228881836 1.2649999856948853,4.385000228881836 2.825000047683716,2.825000047683716z"></path><path stroke-linecap="round" stroke-linejoin="round" fill-opacity="0" stroke="#FFFFFF" stroke-opacity="1" stroke-width="1.8px" d=" M2.825000047683716,2.825000047683716 C4.385000228881836,1.2649999856948853 4.385000228881836,-1.2649999856948853 2.825000047683716,-2.825000047683716 C1.2649999856948853,-4.385000228881836 -1.2649999856948853,-4.385000228881836 -2.825000047683716,-2.825000047683716 C-4.385000228881836,-1.2649999856948853 -4.385000228881836,1.2649999856948853 -2.825000047683716,2.825000047683716 C-1.2649999856948853,4.385000228881836 1.2649999856948853,4.385000228881836 2.825000047683716,2.825000047683716z"></path></g></g><g transform="matrix(0.9999936819076538,0,0,0.9999936819076538,268.5979919433594,293.7760009765625)" opacity="1" style="display: block;"><g opacity="1" transform="matrix(12.307689666748047,0,0,12.307689666748047,0,0)"><path fill="#FFFFFF" fill-opacity="1" d=" M2.825000047683716,2.825000047683716 C4.385000228881836,1.2649999856948853 4.385000228881836,-1.2649999856948853 2.825000047683716,-2.825000047683716 C1.2649999856948853,-4.385000228881836 -1.2649999856948853,-4.385000228881836 -2.825000047683716,-2.825000047683716 C-4.385000228881836,-1.2649999856948853 -4.385000228881836,1.2649999856948853 -2.825000047683716,2.825000047683716 C-1.2649999856948853,4.385000228881836 1.2649999856948853,4.385000228881836 2.825000047683716,2.825000047683716z"></path><path stroke-linecap="round" stroke-linejoin="round" fill-opacity="0" stroke="#FFFFFF" stroke-opacity="1" stroke-width="1.8px" d=" M2.825000047683716,2.825000047683716 C4.385000228881836,1.2649999856948853 4.385000228881836,-1.2649999856948853 2.825000047683716,-2.825000047683716 C1.2649999856948853,-4.385000228881836 -1.2649999856948853,-4.385000228881836 -2.825000047683716,-2.825000047683716 C-4.385000228881836,-1.2649999856948853 -4.385000228881836,1.2649999856948853 -2.825000047683716,2.825000047683716 C-1.2649999856948853,4.385000228881836 1.2649999856948853,4.385000228881836 2.825000047683716,2.825000047683716z"></path></g></g><g transform="matrix(1,0,0,1,483.3760070800781,345.9070129394531)" opacity="1" style="display: block;"><g opacity="1" transform="matrix(12.307689666748047,0,0,12.307689666748047,0,0)"><path fill="#FFFFFF" fill-opacity="1" d=" M-3.115999937057495,2.5910000801086426 C-3.115999937057495,2.5910000801086426 7.756999969482422,-7.139999866485596 7.756999969482422,-7.139999866485596"></path><path stroke-linecap="round" stroke-linejoin="round" fill-opacity="0" stroke="#FFFFFF" stroke-opacity="1" stroke-width="1.8px" d=" M-3.115999937057495,2.5910000801086426 C-3.115999937057495,2.5910000801086426 7.756999969482422,-7.139999866485596 7.756999969482422,-7.139999866485596"></path></g></g><g transform="matrix(1,0,0,1,344.3559875488281,344.552001953125)" opacity="1" style="display: block;"><g opacity="1" transform="matrix(12.307689666748047,0,0,12.307689666748047,0,0)"><path fill="#FFFFFF" fill-opacity="1" d=" M-4.2129998207092285,-2.8480000495910645 C-4.2129998207092285,-2.8480000495910645 4.791999816894531,2.799999952316284 4.791999816894531,2.799999952316284"></path><path stroke-linecap="round" stroke-linejoin="round" fill-opacity="0" stroke="#FFFFFF" stroke-opacity="1" stroke-width="1.8px" d=" M-4.2129998207092285,-2.8480000495910645 C-4.2129998207092285,-2.8480000495910645 4.791999816894531,2.799999952316284 4.791999816894531,2.799999952316284"></path></g></g><g transform="matrix(1,0,0,1,192.7570037841797,357.1969909667969)" opacity="1" style="display: block;"><g opacity="1" transform="matrix(12.307689666748047,0,0,12.307689666748047,0,0)"><path fill="#FFFFFF" fill-opacity="1" d=" M4.132999897003174,-3.25600004196167 C4.132999897003174,-3.25600004196167 -6.513999938964844,6.571000099182129 -6.513999938964844,6.571000099182129"></path><path stroke-linecap="round" stroke-linejoin="round" fill-opacity="0" stroke="#FFFFFF" stroke-opacity="1" stroke-width="1.8px" d=" M4.132999897003174,-3.25600004196167 C4.132999897003174,-3.25600004196167 -6.513999938964844,6.571000099182129 -6.513999938964844,6.571000099182129"></path></g></g></g></svg>