<svg xmlns:xlink="http://www.w3.org/1999/xlink" xmlns="http://www.w3.org/2000/svg" width="20" height="19" viewBox="0 0 20 19" fill="none">
<path d="M9.97029 12.6272H13.1271C13.1271 16.1101 10.2965 18.9407 6.81353 18.9407C3.33056 18.9407 0.5 16.1101 0.5 12.6272C0.5 9.14416 3.33056 6.31358 6.81353 6.31358V9.47037C5.06678 9.47037 3.65676 10.8804 3.65676 12.6272C3.65676 14.3739 5.06678 15.7839 6.81353 15.7839C8.56027 15.7839 9.97029 14.3739 9.97029 12.6272ZM13.1271 0C9.64409 0 6.81353 2.83059 6.81353 6.31358H9.97029C9.97029 4.56682 11.3803 3.15679 13.1271 3.15679C14.8738 3.15679 16.2838 4.56682 16.2838 6.31358C16.2838 8.06033 14.8738 9.47037 13.1271 9.47037V12.6272C16.61 12.6272 19.4406 9.79657 19.4406 6.31358C19.4406 2.83059 16.61 0 13.1271 0Z" fill="#FFFFFF"></path>
<path d="M13.128 6.31323H9.97119V9.47002H13.128V6.31323Z" fill="#FFFFFF"></path>
<path d="M9.97073 9.47021H6.81396V12.627H9.97073V9.47021Z" fill="#FFFFFF"></path>
</svg>