<svg xmlns="http://www.w3.org/2000/svg" xmlns:xlink="http://www.w3.org/1999/xlink" viewBox="0 0 612 612" width="612" height="612" preserveAspectRatio="xMidYMid meet" style="width: 100%; height: 100%; transform: translate3d(0px, 0px, 0px); content-visibility: visible;"><defs><clipPath id="__lottie_element_566"><rect width="612" height="612" x="0" y="0"></rect></clipPath></defs><g clip-path="url(#__lottie_element_566)"><g transform="matrix(0.7699999809265137,0,0,0.7699999809265137,312.15399169921875,304.4649963378906)" opacity="1" style="display: block;"><g opacity="1" transform="matrix(12.307689666748047,0,0,12.307689666748047,0,0)"><path fill="#FE4A23" fill-opacity="1" d=" M17.5,-2.427999973297119 C17.5,-2.427999973297119 4.038000106811523,-7.293000221252441 4.038000106811523,-7.293000221252441 C4.038000106811523,-7.293000221252441 6.729000091552734,-21.875 6.729000091552734,-21.875 C6.729000091552734,-21.875 -17.5,0 -17.5,0 C-17.5,0 -4.038000106811523,4.861000061035156 -4.038000106811523,4.861000061035156 C-4.038000106811523,4.861000061035156 -6.729000091552734,21.875 -6.729000091552734,21.875 C-6.729000091552734,21.875 17.5,-2.427999973297119 17.5,-2.427999973297119z"></path><path stroke-linecap="round" stroke-linejoin="round" fill-opacity="0" stroke="#FE4A23" stroke-opacity="1" stroke-width="2px" d=" M17.5,-2.427999973297119 C17.5,-2.427999973297119 4.038000106811523,-7.293000221252441 4.038000106811523,-7.293000221252441 C4.038000106811523,-7.293000221252441 6.729000091552734,-21.875 6.729000091552734,-21.875 C6.729000091552734,-21.875 -17.5,0 -17.5,0 C-17.5,0 -4.038000106811523,4.861000061035156 -4.038000106811523,4.861000061035156 C-4.038000106811523,4.861000061035156 -6.729000091552734,21.875 -6.729000091552734,21.875 C-6.729000091552734,21.875 17.5,-2.427999973297119 17.5,-2.427999973297119z"></path></g></g></g></svg>