<svg xmlns:xlink="http://www.w3.org/1999/xlink" xmlns="http://www.w3.org/2000/svg" width="66" height="13" viewBox="0 0 66 13" fill="none">
  <path d="M6.79663 0.263066H7.81731V3.19888H6.48095C5.59706 3.19888 4.97623 3.40933 4.59742 3.81971C4.2186 4.2301 4.0292 4.90355 4.0292 5.84006V11.8274H0.925049V0.326202H2.92433L3.48203 1.73623C4.25017 0.747107 5.36556 0.263066 6.79663 0.263066ZM18.6134 0.305156H20.9389V11.8064H18.4872L18.2346 10.7857C17.1824 11.6906 15.9407 12.1431 14.5097 12.1431C12.7734 12.1431 11.3424 11.5644 10.1954 10.4069C9.04845 9.24939 8.48023 7.79727 8.48023 6.05051C8.48023 4.31428 9.04845 2.8832 10.1954 1.72571C11.3424 0.578745 12.7734 0 14.5097 0C15.9723 0 17.2245 0.473518 18.2767 1.41003L18.6134 0.305156ZM12.5104 8.30235C13.0996 8.90214 13.8467 9.19678 14.7411 9.19678C15.6461 9.19678 16.3932 8.90214 16.9825 8.30235C17.5717 7.70256 17.8769 6.95546 17.8769 6.05051C17.8769 5.14557 17.5822 4.38794 16.9825 3.79867C16.3827 3.19888 15.6461 2.90425 14.7517 2.90425C14.1519 2.90425 13.6152 3.04104 13.1417 3.31463C12.6682 3.58822 12.2894 3.96703 12.0263 4.44055C11.7527 4.91407 11.6265 5.45072 11.6265 6.05051C11.6265 6.95546 11.9211 7.71309 12.5104 8.30235ZM36.5333 0.0420907C37.7224 0.0420907 38.701 0.462996 39.4586 1.31533C40.2162 2.17818 40.595 3.27254 40.595 4.59839V11.8169H37.4909V5.114C37.4909 3.55665 36.9121 2.76745 35.7441 2.76745C35.2917 2.76745 34.8918 2.87268 34.5656 3.09365C34.2289 3.31463 33.9764 3.64083 33.808 4.06173C33.6396 4.48264 33.5555 4.99825 33.5555 5.59804V11.8169H30.5144V5.114C30.5144 3.55665 29.9567 2.76745 28.8308 2.76745C28.1258 2.76745 27.5681 3.01999 27.1683 3.51456C26.7684 4.00912 26.5685 4.70361 26.5685 5.59804V11.8169H23.4643V0.326202H25.632L26.2107 1.75728C26.6316 1.23115 27.1472 0.820765 27.7575 0.515609C28.3573 0.210453 28.9992 0.0526131 29.6621 0.0526131C30.3882 0.0526131 31.0406 0.220975 31.6193 0.547177C32.198 0.873378 32.6505 1.32585 32.9767 1.9046C33.1135 1.70467 33.2713 1.52578 33.4187 1.35742C33.5765 1.19958 33.7449 1.04174 33.9343 0.915469C34.1237 0.778675 34.3131 0.662925 34.513 0.557699C34.7129 0.452473 34.9234 0.357769 35.1444 0.294633C35.3653 0.220975 35.5863 0.168362 35.8283 0.126272C36.0493 0.0631358 36.2913 0.0420907 36.5333 0.0420907ZM48.529 12.1431C47.3505 12.1431 46.2877 11.88 45.3407 11.3539C44.3937 10.8278 43.6466 10.1017 43.1204 9.17573C42.5838 8.24974 42.3207 7.21852 42.3207 6.08208C42.3207 4.33532 42.91 2.89372 44.0885 1.73623C45.2565 0.578745 46.7402 0 48.529 0C50.3073 0 51.7805 0.578745 52.959 1.72571C54.1375 2.87268 54.7268 4.3248 54.7268 6.07156C54.7268 7.80779 54.1376 9.24939 52.9485 10.4069C51.7595 11.5644 50.2863 12.1431 48.529 12.1431ZM48.529 9.21782C49.4235 9.21782 50.1495 8.92319 50.7177 8.33392C51.2859 7.74465 51.5701 6.98702 51.5701 6.07156C51.5701 5.14557 51.2859 4.39846 50.7177 3.80919C50.1495 3.21992 49.4129 2.92529 48.5185 2.92529C47.6136 2.92529 46.8875 3.21992 46.3193 3.80919C45.7511 4.39846 45.467 5.15609 45.467 6.07156C45.467 6.52403 45.5406 6.95546 45.6879 7.34479C45.8353 7.74465 46.0457 8.07086 46.3193 8.34444C46.5929 8.61803 46.9086 8.82848 47.2874 8.98632C47.6662 9.14416 48.0766 9.21782 48.529 9.21782ZM60.6826 12.1431C59.7355 12.1431 58.8937 11.9748 58.1572 11.6275C57.4311 11.2908 56.8629 10.8067 56.4525 10.1754C56.0526 9.55455 55.8422 8.83901 55.8422 8.02877H58.8622C58.8727 8.36549 58.9674 8.66012 59.1252 8.89162C59.2831 9.12312 59.5146 9.29148 59.7987 9.40723C60.0828 9.51245 60.409 9.56507 60.7773 9.56507C61.0719 9.56507 61.3455 9.52298 61.5875 9.4388C61.8295 9.35462 62.0295 9.21782 62.1873 9.04946C62.3451 8.87058 62.4188 8.66012 62.4188 8.4181C62.4188 8.06033 62.2294 7.79727 61.8611 7.62891C61.4928 7.46054 60.9351 7.31323 60.1985 7.18696C59.725 7.1133 59.3462 7.05016 59.0411 6.9765C58.7359 6.90284 58.3781 6.77657 57.9572 6.60821C57.5363 6.42933 57.1996 6.2294 56.9576 5.9979C56.7051 5.7664 56.4946 5.46124 56.3052 5.06138C56.1158 4.66152 56.0316 4.19853 56.0316 3.6724C56.0316 2.59909 56.4525 1.71519 57.3048 1.03122C58.1572 0.347247 59.2725 0.0105229 60.6615 0.0105229C62.0505 0.0105229 63.1554 0.35777 64.0077 1.06279C64.8495 1.7678 65.2704 2.69379 65.2704 3.84076H62.3136C62.3136 2.93581 61.7348 2.48334 60.5879 2.48334C60.1038 2.48334 59.725 2.57804 59.462 2.77797C59.1884 2.9779 59.0621 3.25149 59.0621 3.58822C59.0621 3.72501 59.1042 3.8618 59.1778 3.97755C59.2515 4.0933 59.3462 4.19853 59.4514 4.26166C59.5567 4.33532 59.725 4.39846 59.9565 4.46159C60.188 4.52473 60.3774 4.56682 60.5353 4.59839C60.6931 4.62996 60.9246 4.67205 61.2403 4.72466C61.5138 4.77727 61.7033 4.81936 61.819 4.84041C61.9348 4.86145 62.1242 4.90354 62.3977 4.95616C62.6713 5.00877 62.8713 5.06138 63.0081 5.114C63.1448 5.16661 63.3237 5.22975 63.5658 5.31393C63.7973 5.39811 63.9761 5.49281 64.1024 5.57699C64.2182 5.6717 64.376 5.77692 64.5443 5.90319C64.7232 6.02947 64.86 6.17678 64.9547 6.3241C65.0494 6.48194 65.1547 6.6503 65.2494 6.83971C65.3441 7.02912 65.4177 7.23957 65.4493 7.48159C65.4808 7.72361 65.5019 7.97615 65.5019 8.24974C65.5019 9.42827 65.0599 10.3648 64.1866 11.0698C63.2922 11.7853 62.1347 12.1431 60.6826 12.1431Z" fill="#FFFFFF"></path>
</svg>