<svg xmlns="http://www.w3.org/2000/svg" xmlns:xlink="http://www.w3.org/1999/xlink" viewBox="0 0 813 813" width="813" height="813" preserveAspectRatio="xMidYMid meet" style="width: 100%; height: 100%; transform: translate3d(0px, 0px, 0px); content-visibility: visible;"><defs><clipPath id="__lottie_element_556"><rect width="813" height="813" x="0" y="0"></rect></clipPath></defs><g clip-path="url(#__lottie_element_556)"><g transform="matrix(1,0,0,1,241.24899291992188,529.5150146484375)" opacity="1" style="display: block;"><g opacity="1" transform="matrix(12.307689666748047,0,0,12.307689666748047,0,-15)"><path fill="#1A1A1A" fill-opacity="1" d=" M3.557499885559082,-8.41349983215332 C3.557499885559082,-8.41349983215332 3.557499885559082,8.41349983215332 3.557499885559082,8.41349983215332 C3.557499885559082,10.376884460449219 1.9633841514587402,11.970999717712402 0,11.970999717712402 C0,11.970999717712402 0,11.970999717712402 0,11.970999717712402 C-1.9633841514587402,11.970999717712402 -3.557499885559082,10.376884460449219 -3.557499885559082,8.41349983215332 C-3.557499885559082,8.41349983215332 -3.557499885559082,-8.41349983215332 -3.557499885559082,-8.41349983215332 C-3.557499885559082,-10.376884460449219 -1.9633841514587402,-11.970999717712402 0,-11.970999717712402 C0,-11.970999717712402 0,-11.970999717712402 0,-11.970999717712402 C1.9633841514587402,-11.970999717712402 3.557499885559082,-10.376884460449219 3.557499885559082,-8.41349983215332z"></path></g></g><g transform="matrix(1,0,0,1,412.2489929199219,389.5150146484375)" opacity="1" style="display: block;"><g opacity="1" transform="matrix(12.307689666748047,0,0,12.307689666748047,0,-11)"><path fill="#1A1A1A" fill-opacity="1" d=" M3.557499885559082,-15.413500785827637 C3.557499885559082,-15.413500785827637 3.557499885559082,15.413500785827637 3.557499885559082,15.413500785827637 C3.557499885559082,17.37688446044922 1.9633841514587402,18.97100067138672 0,18.97100067138672 C0,18.97100067138672 0,18.97100067138672 0,18.97100067138672 C-1.9633841514587402,18.97100067138672 -3.557499885559082,17.37688446044922 -3.557499885559082,15.413500785827637 C-3.557499885559082,15.413500785827637 -3.557499885559082,-15.413500785827637 -3.557499885559082,-15.413500785827637 C-3.557499885559082,-17.37688446044922 -1.9633841514587402,-18.97100067138672 0,-18.97100067138672 C0,-18.97100067138672 0,-18.97100067138672 0,-18.97100067138672 C1.9633841514587402,-18.97100067138672 3.557499885559082,-17.37688446044922 3.557499885559082,-15.413500785827637z"></path></g></g><g transform="matrix(1,0,0,1,584.2490234375,399.5150146484375)" opacity="1" style="display: block;"><g opacity="1" transform="matrix(12.307689666748047,0,0,12.307689666748047,0,0)"><path fill="#1A1A1A" fill-opacity="1" d=" M3.557499885559082,-3.4135003089904785 C3.557499885559082,-3.4135003089904785 3.557499885559082,3.4135003089904785 3.557499885559082,3.4135003089904785 C3.557499885559082,5.376884460449219 1.9633841514587402,6.9710001945495605 0,6.9710001945495605 C0,6.9710001945495605 0,6.9710001945495605 0,6.9710001945495605 C-1.9633841514587402,6.9710001945495605 -3.557499885559082,5.376884460449219 -3.557499885559082,3.4135003089904785 C-3.557499885559082,3.4135003089904785 -3.557499885559082,-3.4135003089904785 -3.557499885559082,-3.4135003089904785 C-3.557499885559082,-5.376884460449219 -1.9633841514587402,-6.9710001945495605 0,-6.9710001945495605 C0,-6.9710001945495605 0,-6.9710001945495605 0,-6.9710001945495605 C1.9633841514587402,-6.9710001945495605 3.557499885559082,-5.376884460449219 3.557499885559082,-3.4135003089904785z"></path></g></g></g></svg>